<?xml version="1.0" encoding="UTF-8" standalone="no"?>
<!DOCTYPE svg PUBLIC "-//W3C//DTD SVG 1.1//EN"
 "http://www.w3.org/Graphics/SVG/1.1/DTD/svg11.dtd">
<!-- Generated by graphviz version 2.40.1 (20161225.0304)
 -->
<!-- Title: snakemake_dag Pages: 1 -->
<svg width="427pt" height="116pt"
 viewBox="0.00 0.00 426.50 116.00" xmlns="http://www.w3.org/2000/svg" xmlns:xlink="http://www.w3.org/1999/xlink">
<g id="graph0" class="graph" transform="scale(1 1) rotate(0) translate(4 112)">
<title>snakemake_dag</title>
<polygon fill="#ffffff" stroke="transparent" points="-4,4 -4,-112 422.5,-112 422.5,4 -4,4"/>
<!-- 0 -->
<g id="node1" class="node">
<title>0</title>
<path fill="none" stroke="#d6d856" stroke-width="2" d="M275,-36C275,-36 245,-36 245,-36 239,-36 233,-30 233,-24 233,-24 233,-12 233,-12 233,-6 239,0 245,0 245,0 275,0 275,0 281,0 287,-6 287,-12 287,-12 287,-24 287,-24 287,-30 281,-36 275,-36"/>
<text text-anchor="middle" x="260" y="-15.5" font-family="sans" font-size="10.00" fill="#000000">all</text>
</g>
<!-- 1 -->
<g id="node2" class="node">
<title>1</title>
<path fill="none" stroke="#56d8d8" stroke-width="2" d="M148,-108C148,-108 12,-108 12,-108 6,-108 0,-102 0,-96 0,-96 0,-84 0,-84 0,-78 6,-72 12,-72 12,-72 148,-72 148,-72 154,-72 160,-78 160,-84 160,-84 160,-96 160,-96 160,-102 154,-108 148,-108"/>
<text text-anchor="middle" x="80" y="-87.5" font-family="sans" font-size="10.00" fill="#000000">bcftools_filter_include_region</text>
</g>
<!-- 1&#45;&gt;0 -->
<g id="edge3" class="edge">
<title>1&#45;&gt;0</title>
<path fill="none" stroke="#c0c0c0" stroke-width="2" d="M125.4216,-71.8314C155.6996,-59.7201 194.9832,-44.0067 223.2832,-32.6867"/>
<polygon fill="#c0c0c0" stroke="#c0c0c0" stroke-width="2" points="224.8175,-35.8427 232.8024,-28.879 222.2177,-29.3433 224.8175,-35.8427"/>
</g>
<!-- 2 -->
<g id="node3" class="node">
<title>2</title>
<path fill="none" stroke="#d85656" stroke-width="2" d="M329.5,-108C329.5,-108 190.5,-108 190.5,-108 184.5,-108 178.5,-102 178.5,-96 178.5,-96 178.5,-84 178.5,-84 178.5,-78 184.5,-72 190.5,-72 190.5,-72 329.5,-72 329.5,-72 335.5,-72 341.5,-78 341.5,-84 341.5,-84 341.5,-96 341.5,-96 341.5,-102 335.5,-108 329.5,-108"/>
<text text-anchor="middle" x="260" y="-87.5" font-family="sans" font-size="10.00" fill="#000000">bcftools_filter_exclude_region</text>
</g>
<!-- 2&#45;&gt;0 -->
<g id="edge1" class="edge">
<title>2&#45;&gt;0</title>
<path fill="none" stroke="#c0c0c0" stroke-width="2" d="M260,-71.8314C260,-64.131 260,-54.9743 260,-46.4166"/>
<polygon fill="#c0c0c0" stroke="#c0c0c0" stroke-width="2" points="263.5001,-46.4132 260,-36.4133 256.5001,-46.4133 263.5001,-46.4132"/>
</g>
<!-- 3 -->
<g id="node4" class="node">
<title>3</title>
<path fill="none" stroke="#59d856" stroke-width="2" d="M406.5,-108C406.5,-108 371.5,-108 371.5,-108 365.5,-108 359.5,-102 359.5,-96 359.5,-96 359.5,-84 359.5,-84 359.5,-78 365.5,-72 371.5,-72 371.5,-72 406.5,-72 406.5,-72 412.5,-72 418.5,-78 418.5,-84 418.5,-84 418.5,-96 418.5,-96 418.5,-102 412.5,-108 406.5,-108"/>
<text text-anchor="middle" x="389" y="-87.5" font-family="sans" font-size="10.00" fill="#000000">filter_vcf</text>
</g>
<!-- 3&#45;&gt;0 -->
<g id="edge2" class="edge">
<title>3&#45;&gt;0</title>
<path fill="none" stroke="#c0c0c0" stroke-width="2" d="M359.4048,-73.4817C340.5691,-62.9688 316.0503,-49.2839 296.0769,-38.136"/>
<polygon fill="#c0c0c0" stroke="#c0c0c0" stroke-width="2" points="297.6944,-35.0305 287.2566,-33.213 294.2828,-41.1429 297.6944,-35.0305"/>
</g>
</g>
</svg>
